<svg width="64" height="64" viewBox="0 0 64 64" fill="none" xmlns="http://www.w3.org/2000/svg">
  <rect width="64" height="64" rx="14" fill="#dcfce7"/>
  <path d="M12 24h40l-4 24H16L12 24z" fill="#ffffff" stroke="#16a34a" stroke-width="2.5" stroke-linejoin="round"/>
  <path d="M22 24c0-8 4-14 10-14s10 6 10 14" stroke="#16a34a" stroke-width="2.5" stroke-linecap="round" fill="none"/>
  <line x1="26" y1="30" x2="25" y2="42" stroke="#16a34a" stroke-width="1.5" stroke-linecap="round"/>
  <line x1="32" y1="30" x2="32" y2="42" stroke="#16a34a" stroke-width="1.5" stroke-linecap="round"/>
  <line x1="38" y1="30" x2="39" y2="42" stroke="#16a34a" stroke-width="1.5" stroke-linecap="round"/>
  <path d="M36 18c3-4 8-5 10-3-1 3-5 5-8 5" fill="#22c55e" stroke="#16a34a" stroke-width="1.5"/>
  <path d="M28 20l-2-8" stroke="#f97316" stroke-width="2" stroke-linecap="round"/>
  <path d="M25 12c1-1 3-1 4 0" stroke="#22c55e" stroke-width="1.5" stroke-linecap="round"/>
</svg>
